# xmcd CD database file
#
# Track frame offsets:
#	150
#	21029
#	41246
#	61414
#	77693
#	104921
#	127330
#	147290
#	167689
#	188092
#	205568
#	215808
#	237856
#	259759
#
# Disc length: 3707 seconds
#
# Revision: 0
# Processed by: cddbd v1.5.1PL2 Copyright (c) Steve Scherf et al.
# Submitted via: CDex 1.60beta1-cs1
#
DISCID=d20e790e
DTITLE=Joève - La Cascade Enchantée
DYEAR=2002
DGENRE=New Age
TTITLE0=La fontaine aux oiseaux
TTITLE1=Rêve bucolique
TTITLE2=Ravissement
TTITLE3=A l'ombre du grand chêne
TTITLE4=Le chant de la source 
TTITLE5=Au royaume des biches
TTITLE6=La cascade enchantée 
TTITLE7=La danse des papillons 
TTITLE8=Le murmure du vent
TTITLE9=Le retour du printemps
TTITLE10=Le sous-bois mystérieux
TTITLE11=Aubade pastorale
TTITLE12=Reflets d'argent
TTITLE13=Le secret des ondines
EXTD=YEAR: 2002
EXTT0=
EXTT1=
EXTT2=
EXTT3=
EXTT4=
EXTT5=
EXTT6=
EXTT7=
EXTT8=
EXTT9=
EXTT10=
EXTT11=
EXTT12=
EXTT13=
PLAYORDER=
